<?xml version="1.0" encoding="UTF-8"?>
<svg version="1.1" xmlns="http://www.w3.org/2000/svg" width="500" height="500">
<path d="M0 0 C42.04592497 -1.23006695 82.46032744 14.61967506 113.08618164 43.21484375 C114.47343552 44.52524464 115.85602216 45.84058149 117.23828125 47.15625 C117.88410156 47.74921875 118.52992188 48.3421875 119.1953125 48.953125 C125.59624872 55.00928011 131.66275385 62.55169538 135.96875 70.25 C139.12162484 74.28741632 142.80661188 75.90947399 147.36328125 78.09375 C154.42081775 81.64278135 160.98055877 85.2966493 167.23828125 90.15625 C168.00527344 90.72214844 168.77226562 91.28804688 169.5625 91.87109375 C200.60751096 115.51729372 218.87033592 150.17943077 224.57763672 188.43066406 C226.64420571 204.95584854 225.79886871 221.91615246 222.23828125 238.15625 C222.07730957 238.89504395 221.91633789 239.63383789 221.75048828 240.39501953 C219.42850207 250.59971398 215.90440385 259.86388503 211.09716797 269.16967773 C210.71318848 269.95028564 210.32920898 270.73089355 209.93359375 271.53515625 C209.40789795 272.54944702 209.40789795 272.54944702 208.87158203 273.58422852 C206.90097708 281.58743715 210.56982107 290.45306657 212.8359375 298.07421875 C213.18965927 299.2902327 213.54338104 300.50624664 213.90782166 301.7591095 C215.22255349 306.278592 216.55005857 310.79423784 217.87957764 315.30938721 C219.18632671 319.7492967 220.48114335 324.19257495 221.7734375 328.63671875 C222.12028091 329.80244919 222.46712433 330.96817963 222.82447815 332.16923523 C223.14158249 333.26089493 223.45868683 334.35255463 223.78540039 335.47729492 C224.06662247 336.43165939 224.34784454 337.38602386 224.6375885 338.36930847 C225.29521692 341.42040565 225.47141668 344.04410101 225.23828125 347.15625 C223.30078125 350.09375 223.30078125 350.09375 220.23828125 352.15625 C212.60644969 351.86441644 205.57899738 349.73701308 198.28515625 347.59375 C197.06677063 347.2423999 195.84838501 346.8910498 194.59307861 346.52905273 C191.37792766 345.60082342 188.16466945 344.66655829 184.95227051 343.72888184 C180.41713191 342.40659113 175.87887721 341.09504618 171.34063721 339.78344727 C168.93029048 339.0861771 166.52071194 338.38624465 164.11199951 337.68334961 C162.47439667 337.2078064 162.47439667 337.2078064 160.80371094 336.72265625 C159.36883331 336.30415405 159.36883331 336.30415405 157.90496826 335.87719727 C151.93469678 334.26311549 149.76639226 334.01281433 144.23828125 337.15625 C111.4898712 354.72313027 71.9851122 356.24893563 36.765625 345.95849609 C23.72059597 341.81765709 9.90077302 335.88405472 -0.96875 327.44213867 C-7.36768229 322.55951388 -12.74106832 320.79498022 -20.63671875 319.59375 C-22.85286672 319.20130542 -25.06771551 318.8014583 -27.28125 318.39453125 C-28.3738916 318.19424316 -29.4665332 317.99395508 -30.59228516 317.78759766 C-44.30026486 315.05698331 -59.8836894 310.60883369 -71.69921875 302.890625 C-78.2668895 300.55213617 -87.41854887 304.59271113 -93.78515625 306.4296875 C-94.92651031 306.75409821 -96.06786438 307.07850891 -97.24380493 307.41275024 C-100.87636929 308.44675592 -104.50652515 309.48895537 -108.13671875 310.53125 C-110.56886125 311.22448188 -113.00115157 311.91719538 -115.43359375 312.609375 C-129.04197348 316.47223614 -129.04197348 316.47223614 -142.57901001 320.57559204 C-146.24899447 321.55190448 -148.97228708 321.67893023 -152.76171875 321.15625 C-155.26171875 319.09375 -155.26171875 319.09375 -156.76171875 316.15625 C-157.10015186 311.08666506 -156.37534874 307.12956407 -154.78295898 302.32910156 C-154.34897422 300.99625488 -153.9151807 299.66334591 -153.48155212 298.3303833 C-153.25093519 297.63341591 -153.02031826 296.93644852 -152.78271294 296.2183609 C-151.55356691 292.47176961 -150.38873042 288.70499339 -149.21289062 284.94140625 C-147.72103413 280.17660935 -146.21161505 275.42014703 -144.62768555 270.68505859 C-137.20371363 251.21707879 -137.20371363 251.21707879 -139.17860413 231.39263916 C-140.76039778 228.46462736 -142.53227626 225.7721942 -144.49804688 223.08972168 C-146.69117515 219.73414221 -147.85913684 216.01564774 -149.07421875 212.21875 C-149.44580109 211.06083702 -149.44580109 211.06083702 -149.82489014 209.87953186 C-158.16416921 183.28774404 -159.95739606 153.34462937 -153.76171875 126.15625 C-153.52026123 125.06691162 -153.52026123 125.06691162 -153.27392578 123.95556641 C-144.24303486 84.56144954 -119.41138887 49.39412857 -85.76171875 27.15625 C-84.69695312 26.44210938 -83.6321875 25.72796875 -82.53515625 24.9921875 C-57.70876355 9.0367639 -29.33653055 1.21854748 0 0 Z M-82.76171875 45.15625 C-83.46167969 45.65125 -84.16164062 46.14625 -84.8828125 46.65625 C-114.36876121 68.29731327 -133.55189906 102.76661712 -139.63671875 138.46875 C-144.22992248 169.02409553 -139.51981271 205.18183621 -122.55078125 231.60546875 C-118.4597048 239.72509429 -121.77015959 247.65949721 -124.26171875 255.86328125 C-124.61685547 257.06562912 -124.97199219 258.26797699 -125.33789062 259.50675964 C-126.27726383 262.68236784 -127.22543167 265.85515536 -128.17871094 269.02661133 C-129.52442393 273.50950365 -130.85623974 277.99651824 -132.18554688 282.48429871 C-132.89291479 284.86962942 -133.60501665 287.25356234 -134.32226562 289.63594055 C-134.64259766 290.71103378 -134.96292969 291.78612701 -135.29296875 292.89379883 C-135.71932617 294.31321526 -135.71932617 294.31321526 -136.15429688 295.76130676 C-136.88464022 298.2291095 -136.88464022 298.2291095 -136.76171875 301.15625 C-129.46526086 299.83606272 -122.41815647 298.00477566 -115.3125 295.8984375 C-113.14396532 295.26663487 -110.97534291 294.63513332 -108.80664062 294.00390625 C-105.42847895 293.01564439 -102.05123897 292.02446551 -98.67553711 291.02783203 C-95.39020792 290.05978011 -92.10166168 289.10337315 -88.8125 288.1484375 C-87.80818436 287.8484787 -86.80386871 287.5485199 -85.76911926 287.23947144 C-78.62484303 285.17626665 -72.63367223 283.71309958 -65.75 287.3515625 C-64.83758545 287.81755859 -63.9251709 288.28355469 -62.98510742 288.76367188 C-61.54421753 289.51487305 -61.54421753 289.51487305 -60.07421875 290.28125 C-49.54549557 295.52755851 -39.20136614 299.43834509 -27.76171875 302.15625 C-26.67576416 302.41873535 -26.67576416 302.41873535 -25.56787109 302.68652344 C10.88120303 311.09336629 49.77884237 302.62346935 81.23828125 283.15625 C86.82905261 279.47571866 92.09563406 275.43568283 97.23828125 271.15625 C97.76631348 270.71925781 98.2943457 270.28226563 98.83837891 269.83203125 C105.86081747 263.94034352 111.65191392 257.39746583 117.23828125 250.15625 C118.33076172 248.82207031 118.33076172 248.82207031 119.4453125 247.4609375 C141.88386212 219.2457385 151.43905233 181.39590516 147.7421875 145.78515625 C146.37498644 134.55744191 143.96763204 123.83072652 140.23828125 113.15625 C140.01269531 112.50962402 139.78710938 111.86299805 139.5546875 111.19677734 C129.3165307 82.54295292 108.76063796 56.69292491 83.23828125 40.15625 C82.26375 39.50914063 81.28921875 38.86203125 80.28515625 38.1953125 C30.46896113 6.17061564 -35.64505451 10.24304425 -82.76171875 45.15625 Z M153.23828125 101.15625 C153.85460307 104.41513253 154.60314658 107.57391889 155.54296875 110.75390625 C165.29140379 144.45972694 166.75022809 178.6328324 155.23828125 212.15625 C154.85800781 213.27128906 154.47773438 214.38632812 154.0859375 215.53515625 C144.69244554 241.31191027 128.71945052 265.8637166 107.23828125 283.15625 C106.34238281 283.90132812 105.44648438 284.64640625 104.5234375 285.4140625 C80.14246851 305.02952053 50.36941507 317.02695059 19.23828125 320.15625 C38.45674209 336.22727061 71.91849356 336.45413717 95.23828125 335.15625 C112.08685072 333.44812533 128.30619869 327.7812465 142.9921875 319.4765625 C150.74355154 316.32378146 158.01427 318.93042916 165.66796875 321.21875 C166.73951202 321.52949463 167.8110553 321.84023926 168.91506958 322.16040039 C172.31748623 323.14901646 175.71544513 324.15201563 179.11328125 325.15625 C182.53329724 326.15767523 185.95416004 327.15611044 189.37576294 328.15209961 C191.50030231 328.77152857 193.62377292 329.39463711 195.74606323 330.02172852 C196.70110748 330.30201904 197.65615173 330.58230957 198.64013672 330.87109375 C199.48204559 331.11980225 200.32395447 331.36851074 201.19137573 331.62475586 C203.20845178 332.24002441 203.20845178 332.24002441 205.23828125 332.15625 C203.19170229 323.71592098 201.04317737 315.31700394 198.66015625 306.96484375 C198.44170044 306.19621002 198.22324463 305.42757629 197.99816895 304.63565063 C197.10132239 301.48423832 196.20252769 298.33348534 195.29101562 295.1862793 C194.61407507 292.84392196 193.94875417 290.4985106 193.28515625 288.15234375 C193.07896667 287.45120956 192.8727771 286.75007538 192.66033936 286.0276947 C190.77652925 279.30323814 190.30055193 274.14543638 193.7277832 267.92089844 C194.08187256 267.29731445 194.43596191 266.67373047 194.80078125 266.03125 C210.48369915 236.38572532 213.14762337 202.89229574 204.36328125 170.71875 C203.6802289 168.52322459 202.97251864 166.3351919 202.23828125 164.15625 C201.87992188 163.08246094 201.5215625 162.00867188 201.15234375 160.90234375 C194.65531135 142.78478024 183.40493237 127.93888479 170.23828125 114.15625 C169.5009375 113.37765625 168.76359375 112.5990625 168.00390625 111.796875 C164.03557901 107.70549885 160.04589585 104.23312334 155.23828125 101.15625 C154.57828125 101.15625 153.91828125 101.15625 153.23828125 101.15625 Z " fill="#FFFFFF" transform="translate(215.76171875,73.84375)"/>
<path d="M0 0 C1.12418335 -0.00426498 2.2483667 -0.00852997 3.40661621 -0.01292419 C5.23490463 -0.01224442 5.23490463 -0.01224442 7.10012817 -0.0115509 C9.04263458 -0.01658882 9.04263458 -0.01658882 11.02438354 -0.02172852 C14.56577952 -0.03053671 18.10715131 -0.03290528 21.64855719 -0.0335443 C23.86413796 -0.03425656 26.07971264 -0.0363942 28.2952919 -0.03904152 C36.03330117 -0.04828411 43.77129325 -0.05237773 51.50930786 -0.05158997 C58.70860906 -0.05098932 65.9078353 -0.06154126 73.10711753 -0.07733363 C79.30009718 -0.09043179 85.49305238 -0.09577291 91.68604577 -0.09513456 C95.37953908 -0.09488026 99.07296571 -0.0976938 102.76644516 -0.10831261 C106.88814122 -0.11983988 111.00967039 -0.11523285 115.13137817 -0.10920715 C116.9535939 -0.11763641 116.9535939 -0.11763641 118.81262207 -0.12623596 C128.14793002 -0.09157846 135.40044188 0.28900695 142.24514771 7.13371277 C145.88395123 12.15275211 146.36754652 16.83844227 146.3855896 22.92016602 C146.39129974 24.07663132 146.39700989 25.23309662 146.40289307 26.42460632 C146.40456985 28.31439209 146.40456985 28.31439209 146.40628052 30.24235535 C146.41091257 31.58970271 146.41593776 32.93704876 146.42132568 34.28439331 C146.43441355 37.93740996 146.44088746 41.59040826 146.44533634 45.24344468 C146.44827265 47.52820152 146.45237848 49.81295341 146.45684052 52.09770775 C146.47050536 59.25351684 146.48017721 66.40931454 146.48404241 73.56513578 C146.4885221 81.81206168 146.50607007 90.05882176 146.535043 98.30569726 C146.55668935 104.68973782 146.56674824 111.07373182 146.56808352 117.45780867 C146.56912935 121.26649117 146.57498978 125.07501757 146.59290314 128.88366127 C146.6094353 132.46816317 146.61151462 136.05239248 146.60276413 139.63691902 C146.60163216 141.57004409 146.61530934 143.50316033 146.6295166 145.43623352 C146.59460626 152.73858581 146.37079833 159.2134052 141.63186646 165.15715027 C141.07112427 165.60316589 140.51038208 166.04918152 139.93264771 166.50871277 C139.10313599 167.20093933 139.10313599 167.20093933 138.25686646 167.90715027 C133.83133756 170.6054339 129.46399984 171.3839055 124.34516907 171.39440918 C123.18877426 171.40149399 122.03237946 171.4085788 120.84094238 171.4158783 C118.9589061 171.41216217 118.9589061 171.41216217 117.03884888 171.40837097 C115.69297504 171.41272222 114.34710367 171.41790674 113.00123596 171.42385864 C109.35644705 171.43721765 105.71176203 171.43783063 102.06695342 171.43529534 C99.0179945 171.43422321 95.96905639 171.43911534 92.92010194 171.44390076 C85.72236364 171.45498591 78.52467752 171.45543939 71.32693481 171.4493866 C63.91743687 171.44335119 56.50812903 171.45564902 49.09866351 171.47695667 C42.72392007 171.49461035 36.34923693 171.50056798 29.97446996 171.49731892 C26.17304871 171.49551142 22.37176298 171.4980884 18.570364 171.51203346 C14.99239497 171.5246682 11.4147206 171.52261489 7.83675575 171.50962257 C5.90980883 171.50615356 3.98285266 171.51739396 2.05593872 171.52919006 C-12.97523919 171.43867798 -12.97523919 171.43867798 -18.33431721 166.75259876 C-22.4353506 162.0525796 -24.00094174 158.37306629 -24.03573608 152.20176697 C-24.04715637 150.98777725 -24.05857666 149.77378754 -24.07034302 148.52301025 C-24.07283355 147.18067973 -24.07508378 145.83834875 -24.07711792 144.49601746 C-24.08637849 143.07984909 -24.09642839 141.66368569 -24.10720825 140.24752808 C-24.13342169 136.40231096 -24.14633953 132.55716363 -24.15522957 128.71187115 C-24.16109719 126.30767826 -24.169308 123.90350432 -24.17823792 121.49932098 C-24.20557995 113.9718897 -24.22491656 106.44450187 -24.2326417 98.91702437 C-24.24159888 90.23747253 -24.2766778 81.55855129 -24.33464289 72.87919116 C-24.37792838 66.1639537 -24.39805301 59.44889332 -24.40072393 52.73351789 C-24.40281657 48.72566546 -24.41455508 44.71840611 -24.45036316 40.71070099 C-24.48341595 36.93802321 -24.48759398 33.16638132 -24.47008514 29.39361 C-24.46854908 28.01336446 -24.47716887 26.6330622 -24.49700165 25.2529583 C-24.59837722 17.7554199 -24.41837071 12.40569231 -19.33525848 6.62410355 C-13.35659108 0.98596392 -7.9930852 0.01377762 0 0 Z M47.93264771 35.69621277 C45.65367642 38.98806018 45.11978145 41.45707146 45.14749146 45.36418152 C45.15071411 46.16662292 45.15393677 46.96906433 45.15725708 47.79582214 C45.16563599 48.62920105 45.17401489 49.46257996 45.18264771 50.32121277 C45.18715942 51.16619324 45.19167114 52.01117371 45.19631958 52.88175964 C45.20809367 54.96577432 45.2260288 57.04975254 45.24514771 59.13371277 C44.14815552 59.11695496 43.05116333 59.10019714 41.92092896 59.08293152 C38.35792891 59.13215469 36.34417908 59.45138145 33.24514771 61.13371277 C30.82062898 64.77049085 30.92229779 67.51512874 30.90921021 71.72355652 C30.90255341 72.46449051 30.89589661 73.2054245 30.88903809 73.96881104 C30.87892077 75.53473938 30.87422078 77.10071076 30.87454224 78.66667175 C30.87016929 81.05940426 30.83384503 83.45029104 30.79592896 85.84269714 C30.79006044 87.3654773 30.78609128 88.88826621 30.78421021 90.41105652 C30.76983917 91.12470871 30.75546814 91.8383609 30.74066162 92.57363892 C30.7718947 95.97812066 30.99929085 97.81056519 33.0864563 100.55387878 C36.2609483 102.8771244 38.81539073 103.2602436 42.63723755 103.27897644 C43.52180634 103.28535629 44.40637512 103.29173615 45.31774902 103.29830933 C46.27089996 103.29942215 47.2240509 103.30053497 48.20608521 103.30168152 C49.18880402 103.30500992 50.17152283 103.30833832 51.184021 103.31176758 C53.2636366 103.31683156 55.34326032 103.31917607 57.42288208 103.3190155 C60.60075316 103.32119944 63.77827568 103.33935382 66.95608521 103.35832214 C68.97691735 103.36125669 70.99775115 103.36324108 73.01858521 103.36418152 C74.44223892 103.37495979 74.44223892 103.37495979 75.89465332 103.38595581 C83.61689652 103.39390979 83.61689652 103.39390979 90.03274536 99.44596863 C91.70598801 96.25481253 91.63382412 93.73179055 91.64358521 90.13761902 C91.64789047 89.13178017 91.64789047 89.13178017 91.65228271 88.10562134 C91.65431892 86.69106703 91.64882001 85.27648428 91.63626099 83.86198425 C91.62022403 81.70647087 91.63610936 79.55283936 91.65530396 77.39738464 C91.65332095 76.01912533 91.64947608 74.64086717 91.64358521 73.26261902 C91.64020142 72.01553162 91.63681763 70.76844421 91.6333313 69.48356628 C91.216311 65.88486473 90.42123583 63.998972 88.24514771 61.13371277 C84.71743101 59.22683888 81.17312811 58.76218963 77.24514771 58.13371277 C77.21936646 56.90394714 77.19358521 55.67418152 77.16702271 54.40715027 C77.11071764 52.77430345 77.05337085 51.14149232 76.99514771 49.50871277 C76.98096802 48.70047058 76.96678833 47.89222839 76.95217896 47.05949402 C76.7318876 41.64032666 75.81323041 38.44569463 72.24514771 34.13371277 C67.52723644 29.97745761 64.75091423 28.77298463 58.56155396 28.85246277 C53.78446408 29.43248043 51.03530276 32.25813554 47.93264771 35.69621277 Z M5.94436646 104.18058777 C2.02437621 108.68632369 0.62694651 114.02542999 0.89749146 119.98918152 C1.80855302 125.60910061 3.7223871 131.21248215 8.05764771 135.07121277 C14.4555312 139.21101974 19.2999886 140.58233902 26.79153442 140.55363464 C28.02959335 140.56633896 28.02959335 140.56633896 29.29266357 140.57929993 C32.00354702 140.60257458 34.71385967 140.60369434 37.42483521 140.60246277 C39.32141341 140.60957031 41.21798947 140.61727018 43.11456299 140.62553406 C47.08377056 140.63895714 51.0527793 140.6405575 55.02200317 140.63468933 C60.09159268 140.62879659 65.16022341 140.6593774 70.22962761 140.69980621 C74.14519327 140.72574112 78.06052988 140.72855536 81.97616959 140.72491455 C83.84436578 140.7266005 85.71257315 140.7361922 87.58068466 140.75405884 C101.32934394 141.21963861 101.32934394 141.21963861 113.24514771 135.13371277 C115.42829365 132.91550627 115.42829365 132.91550627 116.74514771 130.50871277 C117.44124146 129.37562683 117.44124146 129.37562683 118.15139771 128.21965027 C120.86711447 123.04039044 120.92646466 117.85051024 120.24514771 112.13371277 C117.60259494 105.18960551 111.88121782 99.76623405 105.18264771 96.75871277 C102.11486522 96.10599309 99.37247444 95.98479245 96.24514771 96.13371277 C95.68827271 97.98996277 95.68827271 97.98996277 95.12014771 99.88371277 C94.05807452 103.42395673 92.37846439 105.28651169 89.25979614 107.28071594 C84.92878494 109.11445464 80.15901194 108.72128784 75.53030396 108.70011902 C74.40120102 108.7063176 73.27209808 108.71251617 72.10877991 108.71890259 C69.72594056 108.7259922 67.34305158 108.72284186 64.9602356 108.71012878 C61.32315479 108.69627185 57.68865173 108.73034066 54.05178833 108.76847839 C51.73212624 108.76942973 49.41246095 108.76757001 47.09280396 108.76261902 C46.01031876 108.77587723 44.92783356 108.78913544 43.81254578 108.80279541 C36.96301556 108.71873034 33.29942762 107.86928905 28.24514771 103.13371277 C26.90506413 100.81141131 26.10018526 98.69882544 25.24514771 96.13371277 C17.49171859 95.40682879 11.39863213 99.07993854 5.94436646 104.18058777 Z " fill="#FFFFFF" transform="translate(158.75485229492188,148.8662872314453)"/>
<path d="M0 0 C3.87350622 2.9931639 5.09530448 5.39515886 5.75 10.125 C5.84124478 12.54030294 5.88005653 14.95797945 5.875 17.375 C5.87886719 19.23898438 5.87886719 19.23898438 5.8828125 21.140625 C5.75 24.125 5.75 24.125 4.75 25.125 C2.89630389 25.21237645 1.03932459 25.23198153 -0.81640625 25.22265625 C-1.94111328 25.21943359 -3.06582031 25.21621094 -4.22460938 25.21289062 C-5.40861328 25.20451172 -6.59261719 25.19613281 -7.8125 25.1875 C-9.00037109 25.18298828 -10.18824219 25.17847656 -11.41210938 25.17382812 C-14.35812226 25.16199675 -17.30403681 25.14551287 -20.25 25.125 C-20.4130807 22.10196705 -20.53136405 19.08783294 -20.625 16.0625 C-20.67527344 15.21494141 -20.72554687 14.36738281 -20.77734375 13.49414062 C-20.88843582 8.69866623 -20.52544278 5.84048845 -17.3828125 2.09765625 C-11.89867256 -3.5760277 -6.85217268 -3.95317654 0 0 Z " fill="#FFFFFF" transform="translate(227.25,182.875)"/>
<path d="M0 0 C2.43787662 2.12665833 3.65029136 3.21469218 5 6 C5.3083279 11.65267814 3.12609289 14.64981843 -0.4296875 18.71484375 C-2 20 -2 20 -5 20 C-5.12375 19.071875 -5.12375 19.071875 -5.25 18.125 C-5.79326091 15.83330129 -5.79326091 15.83330129 -7.9375 14.9375 C-8.618125 14.628125 -9.29875 14.31875 -10 14 C-12 11 -12 11 -11.9375 7.5625 C-11 4 -11 4 -8.8125 1.5625 C-5.41670665 -0.32405186 -3.81690873 -0.79518932 0 0 Z M-5 6 C-5 7.65 -5 9.3 -5 11 C-3.68 10.67 -2.36 10.34 -1 10 C-1.33 8.68 -1.66 7.36 -2 6 C-2.99 6 -3.98 6 -5 6 Z " fill="#FFFFFF" transform="translate(223,220)"/>
<path d="M0 0 C1.37478516 0.01740234 1.37478516 0.01740234 2.77734375 0.03515625 C3.69644531 0.04417969 4.61554688 0.05320312 5.5625 0.0625 C6.27277344 0.07410156 6.98304688 0.08570313 7.71484375 0.09765625 C8.76186561 3.82406475 8.78926432 7.22778667 8.71484375 11.09765625 C4.98046527 11.97633354 1.54709802 12.18677844 -2.28515625 12.09765625 C-3.16318993 8.36601311 -3.45939226 4.93084854 -3.28515625 1.09765625 C-2.28515625 0.09765625 -2.28515625 0.09765625 0 0 Z " fill="#FFFFFF" transform="translate(205.28515625,260.90234375)"/>
<path d="M0 0 C1.37478516 0.01740234 1.37478516 0.01740234 2.77734375 0.03515625 C3.69644531 0.04417969 4.61554688 0.05320312 5.5625 0.0625 C6.27277344 0.07410156 6.98304688 0.08570313 7.71484375 0.09765625 C8.76186561 3.82406475 8.78926432 7.22778667 8.71484375 11.09765625 C4.98046527 11.97633354 1.54709802 12.18677844 -2.28515625 12.09765625 C-3.16318993 8.36601311 -3.45939226 4.93084854 -3.28515625 1.09765625 C-2.28515625 0.09765625 -2.28515625 0.09765625 0 0 Z " fill="#FFFFFF" transform="translate(253.28515625,260.90234375)"/>
<path d="M0 0 C1.37478516 0.01740234 1.37478516 0.01740234 2.77734375 0.03515625 C3.69644531 0.04417969 4.61554688 0.05320312 5.5625 0.0625 C6.27277344 0.07410156 6.98304688 0.08570313 7.71484375 0.09765625 C8.76186561 3.82406475 8.78926432 7.22778667 8.71484375 11.09765625 C4.98046527 11.97633354 1.54709802 12.18677844 -2.28515625 12.09765625 C-3.16318993 8.36601311 -3.45939226 4.93084854 -3.28515625 1.09765625 C-2.28515625 0.09765625 -2.28515625 0.09765625 0 0 Z " fill="#FFFFFF" transform="translate(181.28515625,260.90234375)"/>
<path d="M0 0 C1.37478516 0.01740234 1.37478516 0.01740234 2.77734375 0.03515625 C3.69644531 0.04417969 4.61554688 0.05320312 5.5625 0.0625 C6.27277344 0.07410156 6.98304688 0.08570313 7.71484375 0.09765625 C8.76186561 3.82406475 8.78926432 7.22778667 8.71484375 11.09765625 C4.98046527 11.97633354 1.54709802 12.18677844 -2.28515625 12.09765625 C-3.16318993 8.36601311 -3.45939226 4.93084854 -3.28515625 1.09765625 C-2.28515625 0.09765625 -2.28515625 0.09765625 0 0 Z " fill="#FFFFFF" transform="translate(229.28515625,260.90234375)"/>
</svg>
